<?xml version="1.0" encoding="UTF-8"?>
<svg id="Camada_2" data-name="Camada 2" xmlns="http://www.w3.org/2000/svg" viewBox="0 0 500 500.01">
  <defs>
    <style>
      .cls-1 {
        stroke: #000;
        stroke-miterlimit: 10;
      }
    </style>
  </defs>
  <path class="cls-1" d="M180.5,1.51c-3.28,1.39-5.15,3.85-6,5-3.36,4.57-18.15,26.17-38,56,19.33,10,38.67,20,58,30,11.67-17.67,23.33-35.33,35-53,.51-1.08,2-4.59,1-9-.86-3.79-3.08-6.13-4-7C207.41,9.27,191.95,.7,186.5,.51c-3.36-.12-6,1-6,1Z"/>
  <path class="cls-1" d="M254.5,56.51c-11,16.33-22,32.67-33,49,19.67,10,39.33,20,59,30,9.67-14.67,19.33-29.33,29-44,.79-2.4,1.8-6.73,0-11-1.36-3.24-3.75-5.07-5-6-5.87-4.38-17.95-12.32-34-22-.81-.43-4.46-2.23-9-1-4.24,1.15-6.45,4.19-7,5Z"/>
  <path class="cls-1" d="M342.5,103.51c-3.79,.86-6.13,3.08-7,4-18.67,28-37.33,56-56,84-.62,1.39-1.52,3.97-1,7,.54,3.13,2.34,5.31,4,7,8.02,8.15,17.79,9.95,33,16,.99,.39,3.19,1.28,6,1,0,0,4.1-.4,8-4,4.85-4.47,25.8-35.95,53-80,.51-1.18,1.41-3.74,1-7-.55-4.4-3.14-7.15-4-8-9.33-6.33-18.67-12.67-28-19-1.08-.51-4.59-2-9-1Z"/>
  <path class="cls-1" d="M415.5,151.51c-4.66,1.03-7.28,4.09-8,5-24.6,36.47-42.22,63.48-46,70-.98,1.69-2.87,5.17-2,9,.45,1.98,1.6,3.9,4,6,8.14,7.11,29.3,15.01,32,16,.89,.47,5.06,2.53,10,1,3.22-1,5.18-3.03,6-4,23.39-34.28,40.1-59.92,44-67,.97-1.76,2.65-5.1,2-9-.82-4.91-4.33-7.52-5-8-9.33-6-18.67-12-28-18-1.08-.51-4.58-1.97-9-1Z"/>
  <path class="cls-1" d="M255.5,170.51c.48-1.2,.85-2.59,1.09-4.28,.18-1.28,.16-2.46-.09-3.72,0,0-.85-4.29-5-8-5.71-5.1-55.26-29.82-124-62-2.29-.67-5.15-1.04-8,0-3.36,1.23-5.25,3.91-6,5-3.73,5.45-30.47,45.21-67,100-.78,.84-3.96,4.45-4,10-.03,4.7,2.22,7.97,3,9,36.67,49.67,73.33,99.33,110,149,.44,1.24,.89,2.94,1,5,.17,3.04-.47,5.49-1,7-8.67,34.33-17.33,68.67-26,103-.25,.83-2.03,7.22,2,13,3.15,4.52,7.82,5.73,9,6h225c1.11-.07,5.42-.46,9-4,3.16-3.12,3.83-6.8,4-8v-83c1.41-2.97,3.84-7.17,8-11,4.68-4.3,7.9-4.79,13-8,6.43-4.04,9.8-8.61,16-17,3.53-4.78,8.26-11.27,12-21,3.31-8.6,4.54-16.33,5-22v-50c-1.41,1.4-3.41,3.19-6,5-5.43,3.79-10.33,5.47-12,6-6.85,2.18-12.59,2.12-15,2-7.15-.34-12.69-2.44-16-4-45.33-20-90.67-40-136-60h-9c20.33,41.33,40.67,82.67,61,124,.43,1.25,1.67,5.32,0,10-.17,.49-2.52,6.73-9,9-5.8,2.03-12.57,.06-17-5-23-46.33-46-92.67-69-139h-67c-.99-.26-7.17-1.98-10-8-1.88-4.01-1.24-7.71-1-9,1.61-8.55,9.94-12.52,11-13h98c2.68-.99,4.68-2.14,6-3,0,0,8.18-5.34,14-20Z"/>
</svg>