<?xml version="1.0" encoding="utf-8"?>
<!-- Generator: Adobe Illustrator 26.5.0, SVG Export Plug-In . SVG Version: 6.00 Build 0)  -->
<svg version="1.1" id="Camada_1" xmlns="http://www.w3.org/2000/svg" xmlns:xlink="http://www.w3.org/1999/xlink" x="0px" y="0px"
	 viewBox="0 0 374.1 501.5" style="enable-background:new 0 0 374.1 501.5;" xml:space="preserve">
<g>
	<path d="M112.8,348.4c2.5,9.3,3.4,18.9,2.7,28.5c21.4,8.5,44.3,12.5,67.4,11.7v-37.4l-59.9-56l0.7-1.4H94.1
		c1,18.8,7,36.9,17.5,52.5L112.8,348.4z"/>
	<path d="M176.1,397.7c-21.1-0.1-42.1-4.2-61.8-11.9c-0.4,2.4-0.9,4.8-1.5,7.2l-2.2,8.8l-8.8-2.4v0c-16.6-4.7-33.7-7-50.9-6.9
		c-6.5,36.4-4.3,73.7,6.7,109c42.1-32,107.9-29.8,125.2-28.5v-75.4L176.1,397.7z"/>
	<path d="M262.7,346.2c10.5-15.6,16.5-33.7,17.5-52.5h-29.3l0.7,1.4l-59.9,56.2v37.4c23,0.7,46-3.3,67.4-11.8
		c-0.7-9.6,0.2-19.2,2.7-28.4L262.7,346.2z"/>
	<path d="M272.5,399.4l-8.8,2.4l-2.2-8.8c-0.6-2.3-1.1-4.7-1.5-7.1c-21.8,8.4-45.1,12.4-68.5,11.6v75.4
		c17.5-1.3,83.2-3.7,125.1,28.4c10.9-35.3,13.2-72.7,6.6-109C306.1,392.3,289,394.7,272.5,399.4L272.5,399.4z"/>
	<path d="M101.8,170.5c1.1,2.9,2.6,5.6,4.4,8.1c3.8,5.6,8.7,10.3,14.4,13.8v-60.4c-5.4,0-10.8-0.3-16.1-0.9c-0.8-0.1-1.5-0.1-2.3,0
		c-3.5,0.6-5.9,3.8-5.6,7.4l1.6,17.5C98.6,161.1,99.9,166,101.8,170.5L101.8,170.5z"/>
	<path d="M141.8,200.8v-70c-4.1,0.5-8.3,0.9-12.4,1v64.9c1.4,0.6,2.8,1.1,4.2,1.5L141.8,200.8z"/>
	<path d="M150.6,129.8v73.6l23.1,6.7v-87.5C166.3,125.8,158.5,128.2,150.6,129.8L150.6,129.8z"/>
	<path d="M194.9,212.6v-94.1c-2.1-1.1-4.2-2.4-6.2-3.7c-2,1.3-4.1,2.5-6.2,3.7l0,94.1l6.2,1.8L194.9,212.6z"/>
	<path d="M203.6,122.8v87.5l23.1-6.7l0-73.8C218.8,128.3,211,125.9,203.6,122.8L203.6,122.8z"/>
	<path d="M247.9,132c-4.2-0.1-8.3-0.4-12.4-1v70l8.2-2.4c1.4-0.4,2.8-0.9,4.2-1.5L247.9,132z"/>
	<path d="M274.7,131.5c-0.8-0.1-1.5-0.1-2.3,0c-5.3,0.6-10.7,0.9-16.1,0.9v60.4c5.7-3.6,10.6-8.3,14.4-13.8c1.8-2.5,3.2-5.3,4.4-8.1
		c1.9-4.5,3.2-9.2,3.6-14.1l1.6-17.5h0C280.9,135.5,278.4,132.1,274.7,131.5L274.7,131.5z"/>
	<path d="M201.2,48.6l-0.6-4.9c-0.5-4.2-3.2-7.7-7-9.4c0,0,45.2-23.7,72.4,12.9c13.7,18.8,57.2,9.6,57.2,9.6
		c-27.6-14.4-16.9-23.7-16.9-23.7C325.6,24.3,325.6,0,325.6,0l-31.4,16.9c-19.4,9.7-56.4-14.3-56.4-14.3
		c-35-13.6-53.4,31.2-53.4,31.2c-4.3,1.5-7.4,5.3-8.1,9.9l-0.6,5h0c4.3-0.6,8.6-0.9,12.9-0.9C192.9,47.9,197.1,48.1,201.2,48.6
		L201.2,48.6z"/>
	<path d="M183.9,107.5l4.7-3l4.7,3h0c23.8,13.8,51.6,19.1,78.8,15h1.6c-3.5-15.8-11.6-30.2-23.4-41.4
		c-13.2-12.7-30.1-20.9-48.2-23.5c-4.4-0.6-8.8-1-13.2-1c-4.4,0-8.8,0.3-13.1,1.1c-17.1,2.3-33.1,9.7-46,21.3
		C117,90.6,108,105.8,104,122.6h1.7h0C132.7,126.6,160.3,121.3,183.9,107.5L183.9,107.5z"/>
	<path d="M137.9,224.4l36.8,13.6c9,3.3,19,3.3,28,0l37.1-13.6c13.7-4.9,24.5-15.8,29.2-29.6c-6.6,5.6-14.4,9.8-22.8,12.1l-57.5,16.8
		l-57.5-16.8c-8.4-2.4-16.1-6.6-22.7-12.3C113.2,208.5,124.1,219.5,137.9,224.4L137.9,224.4z"/>
	<path d="M101.8,214.1c0.1,10.7,3.6,21.1,9.8,29.7c6.3,8.7,15.1,15.2,25.2,18.7l10.3,3.9l26.2,9.8v0c10,3.7,21,3.7,31.1,0l24-8.8
		l12.7-4.7l0,0c10-3.6,18.7-10.1,24.9-18.8c6.2-8.7,9.6-19,9.7-29.6v-13.1c-6.2,14.6-18.1,26-33,31.4L206,246.1
		c-11,4.2-23.1,4.2-34.1,0l-37.1-13.7c-14.9-5.5-26.8-16.8-33-31.4L101.8,214.1z"/>
	<path d="M187.2,343.4l53-49.5l0.6-0.6l-8.8-18.2l-24.8,9.3c-12,4.3-25.2,4.3-37.2,0L143,274.2l-9.3,19.1l0.6,0.6L187.2,343.4z"/>
	<path d="M289.1,286.6v8.2c-1.3,20-7.9,39.3-19.1,55.9c-2.4,9-3.2,18.3-2.2,27.6c0,1.5,0,3,0.5,4.5c0.5,1.5,1,5.3,1.7,8.1
		c16.8-4.7,34.2-7.1,51.6-7.3c17.8,0,35.4,2.4,52.5,7.3v-18.9c0-22.6-8.9-44.2-24.9-60.2C333.3,295.7,311.7,286.6,289.1,286.6
		L289.1,286.6z"/>
	<path d="M104.4,390.7c0.7-2.7,1.2-5.4,1.7-8.1c-0.1-0.8-0.1-1.5,0-2.3v-0.8c1.2-9.7,0.5-19.5-2.1-29
		c-11.1-16.7-17.5-36.1-18.6-56.2v-8c-22.6,0-44.3,9-60.3,25c-16,16-25,37.7-25,60.3v18.9c17.1-4.8,34.8-7.3,52.5-7.3
		C70,383.5,87.5,386,104.4,390.7L104.4,390.7z"/>
</g>
</svg>
