<?xml version="1.0" encoding="utf-8"?>
<!-- Generator: Adobe Illustrator 26.5.0, SVG Export Plug-In . SVG Version: 6.00 Build 0)  -->
<svg version="1.1" id="Camada_1" xmlns="http://www.w3.org/2000/svg" xmlns:xlink="http://www.w3.org/1999/xlink" x="0px" y="0px"
	 viewBox="0 0 372.7 481.3" style="enable-background:new 0 0 372.7 481.3;" xml:space="preserve">
<g>
	<path d="M199.1,51.1l-0.9-7.4c-0.6-4.2-3.2-7.8-7-9.5c0,0,45.1-23.6,71.8,12.9c13.7,18.5,57.3,9.7,57.3,9.7
		c-27.6-14.5-16.9-23.8-16.9-23.8C322.8,24.3,322.8,0,322.8,0l-31,16.9C272,26.5,235.5,2.6,235.5,2.6c-35-13.6-53.4,31.3-53.4,31.3
		l0,0c-4.3,1.5-7.5,5.3-8.1,9.9l-0.9,7.4c4.3-0.6,8.7-0.9,13.1-0.9C190.6,50.2,194.9,50.5,199.1,51.1L199.1,51.1z"/>
	<path d="M103.4,120.1c-1.6,6-2.4,12.2-2.4,18.5v61.9C120,170.6,120.7,146.3,103.4,120.1z"/>
	<path d="M182.1,85.9l4.2-2.4l4.2,2.4c21,12.7,45.8,17.5,70,13.7h0.5c-3.9-6.5-8.6-12.4-14.1-17.5C230.4,67,208.7,58.8,186.3,59
		c-30-0.4-58.1,14.9-74.1,40.3C136.3,103.2,161.1,98.5,182.1,85.9L182.1,85.9z"/>
	<path d="M221.3,132.3h-70l-5,18.5l40,11.4l40-11.4L221.3,132.3z"/>
	<path d="M105,210.4c-0.5,0.7-0.6,1.5-0.3,2.3c0.2,0.8,0.8,1.4,1.6,1.7l75.7,27.3V170l-46.4-13.2l8.8-33.3h83.5l8.8,33.3L190.1,170
		v71.6l76.2-27.2c0.8-0.3,1.3-0.9,1.6-1.7c0.2-0.8,0.1-1.6-0.4-2.3c-23.7-34.5-26.7-64.8-3.4-97.9h0c0.6-0.9,0.7-2,0.1-2.9
		s-1.7-1.4-2.7-1.2c-26,4-52.6-1.3-75.2-14.9c-22.6,13.5-49.1,18.6-75.1,14.4c-1.1-0.2-2.1,0.3-2.7,1.2c-0.6,0.9-0.5,2.1,0.1,2.9
		C131.9,145.3,128.8,175.9,105,210.4L105,210.4z"/>
	<path d="M271.5,200.5v-61.9c0-6.1-0.8-12.1-2.3-18C252.1,146.7,252.8,171.1,271.5,200.5L271.5,200.5z"/>
	<path d="M211.8,313.2l27.5-25.6l0.6-0.6l-13.7-28.1l11.4-4.1l0,0c15.1-5.1,26.8-17.1,31.8-32.2l-83,30l-83-30
		c4.9,15.1,16.7,27.1,31.8,32.2l11.4,4.1l-13.7,28.1l0.6,0.6l27.5,25.6l2.4,2.2l23.2,21.5l24.5-22.9L211.8,313.2z"/>
	<path d="M212.5,324.6c1.7,12.7,8,24.4,17.6,32.9c9.6,8.5,22,13.2,34.9,13.2h12.2c-8.3-7.8-13.1-18.8-13-30.2
		c0-13.5,6.5-26.3,17.5-34.1l1.3-0.9l1.7-0.4c8.5-2,16.7-5.1,24.3-9.3c-8.5-5.6-18.4-8.7-28.5-8.8h-30.6l0.7,1.4l-26.2,24.9
		L212.5,324.6z"/>
	<path d="M89.2,305.6l1.3,0.9c11,7.9,17.6,20.6,17.5,34.1c0,11.4-4.7,22.4-13,30.2h12.5c12.8-0.1,25.2-4.8,34.9-13.2
		c9.6-8.5,15.9-20.1,17.6-32.9l-9.5-8.8l-28.7-26.8l0.7-1.4l-30.7,0c-10.2,0.1-20.1,3.1-28.5,8.8c7.7,4.1,15.8,7.3,24.3,9.3
		L89.2,305.6z"/>
	<path d="M360.5,262.2c-12,15.7-26.9,29.1-43.8,39.5c-9.3,5.5-19.3,9.5-29.8,12c-7.7,5.4-12.7,13.9-13.8,23.3
		c-1.1,9.4,2,18.8,8.3,25.7c3.2,3.5,7.1,6.3,11.5,8.1c2.8,1.2,5.7,2,8.8,2.3h1.1l31.9,8.1l5,1.2h0c6,1.5,12.4,0.6,17.7-2.6
		s9.2-8.3,10.7-14.4C376.2,331,373.6,294.9,360.5,262.2L360.5,262.2z"/>
	<path d="M71.1,373c3-0.3,6-1.1,8.8-2.3c7.2-3.1,13.1-8.7,16.5-15.7c3.5-7,4.3-15.1,2.4-22.7c-1.9-7.6-6.5-14.3-12.9-18.8
		c-10.5-2.4-20.7-6.3-30-11.7c-16.9-10.3-31.7-23.7-43.8-39.5c-13.1,32.9-15.6,69-7.3,103.3c1.5,6,5.3,11.2,10.7,14.4
		s11.7,4.1,17.7,2.6l4.3-1.1l32.6-8.2L71.1,373z"/>
	<path d="M107.5,379.5H81.3c-3.2,1.2-6.5,1.9-9.8,2.4l-32.2,8.1l7.7,34.5c3.6,16.1,12.6,30.6,25.5,40.9c12.9,10.3,29,16,45.5,15.9
		h63.9V344.9l-14.2-13.3c-3.2,13.6-10.9,25.7-21.8,34.4C135,374.7,121.5,379.4,107.5,379.5L107.5,379.5z"/>
	<path d="M291.3,379.5H265c-14,0-27.5-4.8-38.5-13.4c-11-8.7-18.7-20.8-21.9-34.4l-14,13.2v136.3h63.3c16.5,0,32.6-5.6,45.5-16
		c12.9-10.3,21.9-24.8,25.5-40.9l7.5-35l-31.5-7.9C297.7,381.2,294.4,380.5,291.3,379.5L291.3,379.5z"/>
</g>
</svg>
