<?xml version="1.0" encoding="utf-8"?>
<!-- Generator: Adobe Illustrator 26.5.0, SVG Export Plug-In . SVG Version: 6.00 Build 0)  -->
<svg version="1.1" id="Camada_1" xmlns="http://www.w3.org/2000/svg" xmlns:xlink="http://www.w3.org/1999/xlink" x="0px" y="0px"
	 viewBox="0 0 345.6 391.2" style="enable-background:new 0 0 345.6 391.2;" xml:space="preserve">
<g>
	<path d="M56.6,88.6l7-3.9l-2.3-4.2l-7,3.9l-3.5-6.3l7-3.9L55.5,70l-7,3.9L45,67.6l7-3.9l-2.3-4.2L26.9,72.1l2.3,4.2l7-3.9l3.5,6.3
		l-7,3.9l2.3,4.2l7-3.9l3.5,6.3l-7,3.9l2.3,4.2l7-3.9l20.8,37.7c0.4-5.8,1-11.6,1.8-17.4L56.6,88.6z"/>
	<path d="M9.1,93.8l5,5.1l-5.7,5.6l3.4,3.4l5.7-5.6l5,5.1l-5.7,5.6l3.4,3.4l5.7-5.6l42.3,42.6c-0.2-4.7-0.1-9.4,0-14.2L33,103.7
		l5.7-5.6l-3.4-3.4l-5.7,5.6l-5-5.1l5.7-5.6l-3.4-3.4l-5.7,5.6l-5-5.1l5.7-5.6l-3.4-3.4L0,95.9l3.4,3.4L9.1,93.8z"/>
	<path d="M215.2,169.8l-5.6-2.4c-0.3-0.1-3.2-1.4-7-3.8c-5.2-3.4-12.1-9.1-16.2-17.5c0-0.1-0.1-0.1-0.1-0.2c-0.3,0-0.6,0-0.9,0H99.2
		c-0.3,0-0.6,0-0.9,0c-0.2,0.5-0.5,1-0.8,1.5c-1.3,2.5-2.9,4.7-4.6,6.7c-1.6,1.8-3.2,3.5-4.9,4.9c-0.9,0.8-1.8,1.5-2.7,2.2
		c-1.2,0.9-2.3,1.7-3.4,2.4c-0.8,0.5-1.5,1-2.2,1.4c-2.6,1.5-4.5,2.3-4.8,2.5l-5.6,2.4l-0.5-6.1c-0.2-2.1-0.3-4.3-0.4-6.4
		c-5,2.7-10.2,6-15.5,10.2C41.1,177,29.6,191,21.3,210.3c-8.3,19.4-13.5,44-13.5,75c0,6.8,0.2,13.8,0.7,21.2
		c0.6,9.4,8.5,16.6,17.8,16.6c0.4,0,0.8,0,1.2,0c9.8-0.7,17.3-9.2,16.6-19c-0.5-6.6-0.7-12.9-0.7-18.8c0-27.2,4.5-46.8,10.6-60.9
		c8-18.3,18.4-28,27.9-33.8v120.9c-0.6,3.5-1.5,9.6-2.8,18l5.8-4.1l45.2-31.9l72.4-51v-55.7c2.7,2.2,5.6,5.4,8.6,10.4
		c3.9,6.7,7.6,17.1,9.6,32.5l32.1-22.6c-0.7-2.8-1.4-5.6-2.3-8.2c-6.8-21.9-18.8-36.2-31.2-43.9c-1-0.6-2-1.2-2.9-1.7
		c-0.1,3.5-0.3,7-0.6,10.4L215.2,169.8z"/>
	<path d="M202.6,265l-28.3,19.9l-26.2,18.5l-10.3,7.2l-62.1,43.8c-0.2,1.8-0.5,3.6-0.7,5.5c2.8,1,5.4,2.2,7.9,3.7
		c2.6,1.7,8.8,3.8,18,4.2c1.5,0.1,3.1,0.1,4.7,0.1c7.5,0,16.1-0.9,24.9-2.6c1.7-12.4,3.2-22.9,4.3-30.8c0.1-0.6,0.2-1.1,0.2-1.6
		h14.2c1,6.9,2.4,15.9,3.8,26.8c18-5.7,36.1-14,52.9-24.3c-1.5-10.1-2.6-17.7-3.4-22.3L202.6,265z"/>
	<path d="M133,297.1l-45,31.7l-9.7,6.8l-41.9,29.5c-11.9,3.1-20.8,7.4-21.2,7.5c-4.7,2.2-6.8,7.8-4.6,12.5c0.2,0.5,0.5,1,0.8,1.5
		c2.6,3.6,7.4,5,11.6,3.1l0,0c0,0,0.4-0.2,1.4-0.6c3.4-1.5,12.5-5.1,22.2-7c9.7-2.1,19.5-1.7,23.6,1.2c0.5,0.3,1,0.6,1.5,0.9
		c7.6,4.3,17,6.3,27.8,6.9c8.4,0.4,17.7-0.1,27.7-1.6c9.1-1.3,18.8-3.5,28.8-6.4c16.9-5,34.8-12.4,52.6-22.4
		c-2.5-4.3-3.5-9.5-2.6-14.7c0.1-0.3,0.1-0.6,0.2-0.9c0.2-1,0.4-2,0.6-3.1c0.1-0.7,0.3-1.4,0.4-2.2c-0.2,0.1-0.5,0.3-0.7,0.4
		c-17.9,10.8-36,18.7-53,24c-6.5,2-12.7,3.6-18.8,4.9c-1.7,0.4-3.4,0.7-5.1,1c-11,2-21,2.7-29.2,2.2c-9.5-0.4-16.7-2.6-20.2-4.9
		c-2-1.2-4-2.2-6.1-3c-5.1-1.9-10.4-2.5-15.5-2.5c-0.5,0-1,0-1.5,0l19.2-13.6l22-15.5l38.5-27.1l16.9-11.9l9.5-6.7l39.2-27.6
		l19.4-13.7l33.7-23.7l49.8-35.1c-0.2,0.5-0.4,1-0.6,1.5c-2.4,6.8-3.8,14.3-2.1,22.2c1,4.1,0.6,11.5-2.2,20.6
		c-5.4,18.3-19.6,42.7-41.2,65.9c-0.3,2.2-0.7,4.9-1.1,8c-1,6.5-2.2,14.6-3.5,22.8c20.1-17.8,36-37.2,47.3-55.7
		c7.6-12.5,13.2-24.6,16.5-35.6c3.3-11.1,4.5-21.1,2.5-30.2c-0.7-2.8-0.2-7,1.5-11.7c2.5-7.1,7.7-15.1,12.2-20.9
		c2.3-2.9,4.4-5.4,5.9-7.1c0.8-0.9,1.4-1.5,1.8-1.9s0.6-0.6,0.6-0.6c3.6-3.7,3.6-9.6-0.1-13.3c-3.7-3.6-9.6-3.6-13.3,0.1
		c-0.2,0.2-7.2,7.3-14.1,17.4l-61.6,43.4l-32.6,23L202.6,248L133,297.1z"/>
	<path d="M253.4,310.2c0.4-2.6,0.7-5.2,1-7.7s0.6-4.9,0.9-7.3c0.2-1.7,0.4-3.3,0.5-4.9v-0.1l0,0l0,0c1.3-13.1,2-25.1,2-36
		c0-9.9-0.5-18.8-1.5-27.1l-34.2,24.1c0,1,0,2,0,3c0,9.5-0.6,20.2-1.8,32.3l0,0l0,0l0,0c-1.3,13-3.5,27.6-6.6,43.8
		c-0.4,2-0.8,4-1.2,6.1s-0.9,4.2-1.3,6.4c-0.2,1-0.4,2.1-0.6,3.1c-1,4.4-0.1,8.9,1.9,12.5c0.7,1.3,1.6,2.5,2.7,3.6
		c2.4,2.5,5.5,4.3,9.1,5.1c1.3,0.3,2.5,0.4,3.8,0.4c8.2,0,15.6-5.7,17.4-14.1c1-4.9,2-9.6,2.9-14.3c0.4-2.3,0.9-4.6,1.3-6.8
		C251.1,324.7,252.3,317.2,253.4,310.2L253.4,310.2z"/>
	<path d="M130.9,133c18.9,4.4,37.8-2.5,49.5-16.3C168.8,42.5,150.2,34,142.3,34s-26.5,8.5-38.2,82.7
		C110.8,124.6,120,130.5,130.9,133z"/>
	<path d="M72.8,155.1c0,1,0.1,2,0.2,3c0.1,1.8,0.2,3.5,0.4,5.2c0,0,1.3-0.5,3.2-1.6c1.7-1,4-2.4,6.4-4.3c0.1,0,0.1-0.1,0.2-0.1
		c0.6-0.4,1.1-0.9,1.7-1.4c2-1.7,3.9-3.7,5.7-6c0.3-0.4,0.6-0.9,1-1.3c0.3-0.4,0.6-0.8,0.9-1.3c2.3-3.7,4.1-8,4.8-13
		c0.6-4.7,1.6-12.9,3.2-22.7c4.2-25.2,12.4-61,27.5-75.6c4.2-4.1,9-6.6,14.4-6.6s10.2,2.5,14.4,6.6c15.1,14.6,23.3,50.4,27.5,75.6
		c1.6,9.8,2.7,18,3.2,22.6c0.6,4.5,2.1,8.4,4.1,11.8c0.2,0.4,0.4,0.8,0.7,1.2c2.7,4.2,6.2,7.6,9.4,10.1c5.1,4,9.7,5.9,9.7,5.9
		c0.4-4,0.6-8.1,0.7-12.2c1.4-70.2-34.2-151-69.8-151c-30.5,0-60.9,59.2-68.1,120.3c-0.7,6.1-1.2,12.1-1.4,18.2
		c-0.1,1.7-0.1,3.4-0.1,5.1C72.5,147.4,72.6,151.3,72.8,155.1L72.8,155.1z"/>
</g>
</svg>
