<?xml version="1.0" encoding="utf-8"?>
<!-- Generator: Adobe Illustrator 26.5.0, SVG Export Plug-In . SVG Version: 6.00 Build 0)  -->
<svg version="1.1" id="Camada_1" xmlns="http://www.w3.org/2000/svg" xmlns:xlink="http://www.w3.org/1999/xlink" x="0px" y="0px"
	 viewBox="0 0 463.9 506.6" style="enable-background:new 0 0 463.9 506.6;" xml:space="preserve">
<g>
	<path d="M383.5,367.1l52.2,17.4l-22.6-30.1c-23.2-30.8-59.5-48.9-98-49l-26.4-1.8l-27.5,10c-1,0.3-2,0.5-3,0.5h-14.1l28.5,85.4
		L378.1,367C379.9,366.5,381.8,366.5,383.5,367.1L383.5,367.1z"/>
	<path d="M454.1,409.1l-73.5-24.5l-102.5,31.5l3.4,10.1l97.1-24.3c1.4-0.3,2.9-0.3,4.3,0l81.1,20.3L454.1,409.1z"/>
	<path d="M85.8,367l105.6,32.5l28.5-85.4h-14.1c-1,0-2-0.2-3-0.5l-25.4-9.2l-28.2,1c-38.6,0-75,18.2-98.3,49l-22.6,30.1l52.2-17.4
		C82.2,366.5,84,366.5,85.8,367L85.8,367z"/>
	<path d="M253.8,296.6l65.7-90.3v-55.1L232,113.6l-87.5,37.5v55.1l65.7,90.4H253.8z M185.4,173.7l-26.2-8.8l5.5-16.6l24,8l41.5-8.3
		l0,0c1.1-0.2,2.3-0.2,3.4,0l41.5,8.3l24-8l5.5,16.6l-26.2,8.8l0,0c-0.9,0.3-1.8,0.4-2.8,0.4c-0.6,0-1.2-0.1-1.8-0.2l-42-8.4
		l-42,8.4C188.5,174.2,186.9,174.2,185.4,173.7L185.4,173.7z M240.7,191.6v26.2h-17.5v-26.2H240.7z M197,235.4h57.6l6.2-6.2
		l12.4,12.4l-8.8,8.8v0c-1.6,1.6-3.9,2.6-6.2,2.6H197V235.4z"/>
	<path d="M232,0L125.2,49.3L66.9,207.4l47.7,55.6l67.2,24.4l-53.2-73.1c-1.1-1.5-1.7-3.3-1.7-5.2v-50.5l-14.1,6l-6.9-16.1
		l122.5-52.5h0c2.2-0.9,4.7-0.9,6.9,0l122.5,52.5l-6.9,16.1l-14.1-6v50.5c0,1.8-0.6,3.6-1.7,5.1l-53.2,73.1l67.2-24.4l47.7-55.6
		L338.8,49.3L232,0z"/>
	<path d="M0,422.2l81.1-20.3c1.4-0.3,2.9-0.3,4.2,0l97.1,24.3l3.4-10.1L83.3,384.6L9.8,409.1L0,422.2z"/>
	<path d="M400.9,424.4l-20.2-5.1l-102.9,25.7c-0.7,0.2-1.4,0.3-2.1,0.3c-3.8,0-7.1-2.4-8.3-6l-8.3-25L232,333l-27.1,81.4l-8.3,25
		c-0.3,1-0.9,1.9-1.5,2.7c-0.5,0.5-1,1-1.5,1.3c-0.2,0.2-0.4,0.4-0.6,0.5c-1.7,1-3.6,1.4-5.5,1.2c-0.4,0-0.8,0-1.2-0.1L83.2,419.4
		l-20.2,5l-33.8,82.2h405.6L400.9,424.4z"/>
</g>
</svg>
