<?xml version="1.0" encoding="utf-8"?>
<!-- Generator: Adobe Illustrator 26.5.0, SVG Export Plug-In . SVG Version: 6.00 Build 0)  -->
<svg version="1.1" id="Camada_1" xmlns="http://www.w3.org/2000/svg" xmlns:xlink="http://www.w3.org/1999/xlink" x="0px" y="0px"
	 viewBox="0 0 362.2 397.5" style="enable-background:new 0 0 362.2 397.5;" xml:space="preserve">
<g>
	<path d="M362.2,91c0,0-22.2,37.1-32.1,40.8l-9.9,3.7c0,0,2.1-49.4-18.9-87.7C280.3,9.5,245.8,0,181.1,0S81.9,9.5,60.9,47.8
		C39.9,86.1,42,135.5,42,135.5l-9.9-3.7C22.3,128.1,0,91,0,91s2.5,46.9,7.4,63c4.9,16.1,29.6,40.8,28.4,69.2
		c-1.2,28.4-7.4,35.8-7.4,35.8c-1.2,147,152.7,138.4,152.7,138.4S335.1,406,333.8,259c0,0-6.2-7.4-7.4-35.8
		c-1.2-28.4,23.5-53.1,28.4-69.2C359.7,138,362.2,91,362.2,91L362.2,91z M74.8,278.3c0,0-13.4-23.5-9.2-52.1
		c4.2-28.6,9.2-36.1,9.2-36.1s24.4,62.2,30.2,70.6C110.9,269.1,91.6,283.4,74.8,278.3L74.8,278.3z M103.3,185.6
		c-12.6-0.8-9.2-24.4-15.1-30.6c-5.9-6.3-22.7-11.4-22.7-11.4s15.1,0,26,5.9c10.9,5.9,44.5,17.6,48.7,16.8c4.2-0.8,9.2-4.2,9.2-4.2
		C142,202.4,115.9,186.5,103.3,185.6L103.3,185.6z M175.6,239.4h-19.3c0,0-5.9-5,0-8.4c5.9-3.4,10.1-0.6,12.6-7.4
		c2.5-6.8,6.7-12.7,6.7-12.7L175.6,239.4z M203.2,239.4h-19.3v-28.6c0,0,4.2,5.9,6.7,12.7c2.5,6.8,6.7,4.1,12.6,7.4
		C209.1,234.4,203.2,239.4,203.2,239.4L203.2,239.4z M209.5,162.1c0,0,5,3.4,9.2,4.2c4.2,0.8,37.8-10.9,48.7-16.8
		c10.9-5.9,26-5.9,26-5.9s-16.8,5.1-22.7,11.4c-5.9,6.3-2.5,29.8-15.1,30.6C243.1,186.5,217,202.4,209.5,162.1L209.5,162.1z
		 M286.7,278.3c-16.8,5-36.1-9.2-30.2-17.6c5.9-8.4,30.2-70.6,30.2-70.6s5,7.6,9.2,36.1C300.2,254.8,286.7,278.3,286.7,278.3
		L286.7,278.3z"/>
</g>
</svg>
